<svg width="18" height="18" viewBox="0 0 18 18" fill="none" xmlns="http://www.w3.org/2000/svg">
<path d="M5 6H1C0.447715 6 0 6.44772 0 7V11C0 11.5523 0.447715 12 1 12H5C5.55228 12 6 11.5523 6 11V7C6 6.44772 5.55228 6 5 6Z" fill="#E6B800"/>
<path opacity="0.6" d="M11 0H7C6.44772 0 6 0.447715 6 1V5C6 5.55228 6.44772 6 7 6H11C11.5523 6 12 5.55228 12 5V1C12 0.447715 11.5523 0 11 0Z" fill="#E6B800"/>
<path opacity="0.6" d="M11 12H7C6.44772 12 6 12.4477 6 13V17C6 17.5523 6.44772 18 7 18H11C11.5523 18 12 17.5523 12 17V13C12 12.4477 11.5523 12 11 12Z" fill="#E6B800"/>
<path opacity="0.3" d="M17 6H13C12.4477 6 12 6.44772 12 7V11C12 11.5523 12.4477 12 13 12H17C17.5523 12 18 11.5523 18 11V7C18 6.44772 17.5523 6 17 6Z" fill="#E6B800"/>
</svg>
