<svg width="86" height="22" viewBox="0 0 86 22" fill="none" xmlns="http://www.w3.org/2000/svg">
<path d="M5 6H1C0.447715 6 0 6.44772 0 7V11C0 11.5523 0.447715 12 1 12H5C5.55228 12 6 11.5523 6 11V7C6 6.44772 5.55228 6 5 6Z" fill="#E6B800"/>
<path opacity="0.6" d="M11 0H7C6.44772 0 6 0.447715 6 1V5C6 5.55228 6.44772 6 7 6H11C11.5523 6 12 5.55228 12 5V1C12 0.447715 11.5523 0 11 0Z" fill="#E6B800"/>
<path opacity="0.6" d="M11 12H7C6.44772 12 6 12.4477 6 13V17C6 17.5523 6.44772 18 7 18H11C11.5523 18 12 17.5523 12 17V13C12 12.4477 11.5523 12 11 12Z" fill="#E6B800"/>
<path opacity="0.3" d="M17 6H13C12.4477 6 12 6.44772 12 7V11C12 11.5523 12.4477 12 13 12H17C17.5523 12 18 11.5523 18 11V7C18 6.44772 17.5523 6 17 6Z" fill="#E6B800"/>
<path d="M29.2386 18.1545C28.7166 18.1545 28.2514 18.0639 27.843 17.8828C27.4347 17.6982 27.1115 17.4265 26.8736 17.0678C26.6392 16.7056 26.522 16.2546 26.522 15.7148C26.522 15.2603 26.6055 14.8786 26.7724 14.5696C26.9393 14.2607 27.1665 14.0121 27.4542 13.8239C27.7418 13.6357 28.0685 13.4936 28.4343 13.3977C28.8036 13.3018 29.1907 13.2344 29.5955 13.1953C30.0714 13.1456 30.4549 13.0994 30.7461 13.0568C31.0373 13.0107 31.2486 12.9432 31.38 12.8544C31.5114 12.7656 31.5771 12.6342 31.5771 12.4602V12.4283C31.5771 12.0909 31.4705 11.8299 31.2575 11.6452C31.0479 11.4606 30.7496 11.3683 30.3626 11.3683C29.9542 11.3683 29.6293 11.4588 29.3878 11.6399C29.1463 11.8175 28.9865 12.0412 28.9084 12.3111L26.8097 12.1406C26.9162 11.6435 27.1257 11.2138 27.4382 10.8516C27.7507 10.4858 28.1538 10.2053 28.6474 10.0099C29.1445 9.81108 29.7198 9.71165 30.3732 9.71165C30.8278 9.71165 31.2628 9.76491 31.6783 9.87145C32.0973 9.97798 32.4684 10.1431 32.7915 10.3668C33.1183 10.5906 33.3757 10.8782 33.5639 11.2298C33.7521 11.5778 33.8462 11.995 33.8462 12.4815V18H31.6942V16.8654H31.6303C31.4989 17.1211 31.3232 17.3466 31.103 17.5419C30.8828 17.7337 30.6183 17.8846 30.3093 17.9947C30.0004 18.1012 29.6435 18.1545 29.2386 18.1545ZM29.8885 16.5884C30.2223 16.5884 30.517 16.5227 30.7727 16.3913C31.0284 16.2564 31.229 16.0753 31.3746 15.848C31.5202 15.6207 31.593 15.3633 31.593 15.0756V14.2074C31.522 14.2536 31.4244 14.2962 31.3001 14.3352C31.1793 14.3707 31.0426 14.4045 30.8899 14.4364C30.7372 14.4648 30.5845 14.4915 30.4318 14.5163C30.2791 14.5376 30.1406 14.5572 30.0163 14.5749C29.75 14.614 29.5174 14.6761 29.3185 14.7614C29.1197 14.8466 28.9652 14.962 28.8551 15.1076C28.745 15.2496 28.69 15.4272 28.69 15.6403C28.69 15.9492 28.8018 16.1854 29.0256 16.3487C29.2528 16.5085 29.5405 16.5884 29.8885 16.5884ZM37.8759 13.2699V18H35.6067V9.81818H37.7694V11.2617H37.8652C38.0463 10.7859 38.35 10.4094 38.7761 10.1325C39.2022 9.85192 39.7189 9.71165 40.3262 9.71165C40.8944 9.71165 41.3897 9.83594 41.8123 10.0845C42.2349 10.3331 42.5634 10.6882 42.7978 11.1499C43.0321 11.608 43.1493 12.1548 43.1493 12.7905V18H40.8801V13.1953C40.8837 12.6946 40.7559 12.304 40.4966 12.0234C40.2374 11.7393 39.8805 11.5973 39.426 11.5973C39.1206 11.5973 38.8507 11.663 38.6163 11.7944C38.3855 11.9258 38.2044 12.1175 38.073 12.3697C37.9451 12.6183 37.8794 12.9183 37.8759 13.2699ZM48.6345 18.1598C47.8071 18.1598 47.0915 17.984 46.4878 17.6325C45.8877 17.2773 45.4243 16.7837 45.0976 16.1516C44.7709 15.516 44.6075 14.7791 44.6075 13.9411C44.6075 13.0959 44.7709 12.3572 45.0976 11.7251C45.4243 11.0895 45.8877 10.5959 46.4878 10.2443C47.0915 9.8892 47.8071 9.71165 48.6345 9.71165C49.4619 9.71165 50.1757 9.8892 50.7758 10.2443C51.3795 10.5959 51.8447 11.0895 52.1714 11.7251C52.4981 12.3572 52.6615 13.0959 52.6615 13.9411C52.6615 14.7791 52.4981 15.516 52.1714 16.1516C51.8447 16.7837 51.3795 17.2773 50.7758 17.6325C50.1757 17.984 49.4619 18.1598 48.6345 18.1598ZM48.6452 16.402C49.0216 16.402 49.3358 16.2955 49.588 16.0824C49.8401 15.8658 50.0301 15.571 50.1579 15.1982C50.2893 14.8253 50.355 14.4009 50.355 13.9251C50.355 13.4492 50.2893 13.0249 50.1579 12.652C50.0301 12.2791 49.8401 11.9844 49.588 11.7678C49.3358 11.5511 49.0216 11.4428 48.6452 11.4428C48.2652 11.4428 47.9456 11.5511 47.6863 11.7678C47.4307 11.9844 47.2371 12.2791 47.1057 12.652C46.9779 13.0249 46.914 13.4492 46.914 13.9251C46.914 14.4009 46.9779 14.8253 47.1057 15.1982C47.2371 15.571 47.4307 15.8658 47.6863 16.0824C47.9456 16.2955 48.2652 16.402 48.6452 16.402ZM56.4062 13.2699V18H54.137V9.81818H56.2996V11.2617H56.3955C56.5766 10.7859 56.8802 10.4094 57.3064 10.1325C57.7325 9.85192 58.2492 9.71165 58.8564 9.71165C59.4246 9.71165 59.92 9.83594 60.3426 10.0845C60.7652 10.3331 61.0937 10.6882 61.328 11.1499C61.5624 11.608 61.6796 12.1548 61.6796 12.7905V18H59.4104V13.1953C59.414 12.6946 59.2861 12.304 59.0269 12.0234C58.7677 11.7393 58.4108 11.5973 57.9562 11.5973C57.6508 11.5973 57.3809 11.663 57.1466 11.7944C56.9157 11.9258 56.7346 12.1175 56.6032 12.3697C56.4754 12.6183 56.4097 12.9183 56.4062 13.2699Z" fill="#E8E6DF"/>
<path d="M67.2386 18.1545C66.7166 18.1545 66.2514 18.0639 65.843 17.8828C65.4347 17.6982 65.1115 17.4265 64.8736 17.0678C64.6392 16.7056 64.522 16.2546 64.522 15.7148C64.522 15.2603 64.6055 14.8786 64.7724 14.5696C64.9393 14.2607 65.1665 14.0121 65.4542 13.8239C65.7418 13.6357 66.0685 13.4936 66.4343 13.3977C66.8036 13.3018 67.1907 13.2344 67.5955 13.1953C68.0714 13.1456 68.4549 13.0994 68.7461 13.0568C69.0373 13.0107 69.2486 12.9432 69.38 12.8544C69.5114 12.7656 69.5771 12.6342 69.5771 12.4602V12.4283C69.5771 12.0909 69.4705 11.8299 69.2575 11.6452C69.0479 11.4606 68.7496 11.3683 68.3626 11.3683C67.9542 11.3683 67.6293 11.4588 67.3878 11.6399C67.1463 11.8175 66.9865 12.0412 66.9084 12.3111L64.8097 12.1406C64.9162 11.6435 65.1257 11.2138 65.4382 10.8516C65.7507 10.4858 66.1538 10.2053 66.6474 10.0099C67.1445 9.81108 67.7198 9.71165 68.3732 9.71165C68.8278 9.71165 69.2628 9.76491 69.6783 9.87145C70.0973 9.97798 70.4684 10.1431 70.7915 10.3668C71.1183 10.5906 71.3757 10.8782 71.5639 11.2298C71.7521 11.5778 71.8462 11.995 71.8462 12.4815V18H69.6942V16.8654H69.6303C69.4989 17.1211 69.3232 17.3466 69.103 17.5419C68.8828 17.7337 68.6183 17.8846 68.3093 17.9947C68.0004 18.1012 67.6435 18.1545 67.2386 18.1545ZM67.8885 16.5884C68.2223 16.5884 68.517 16.5227 68.7727 16.3913C69.0284 16.2564 69.229 16.0753 69.3746 15.848C69.5202 15.6207 69.593 15.3633 69.593 15.0756V14.2074C69.522 14.2536 69.4244 14.2962 69.3001 14.3352C69.1793 14.3707 69.0426 14.4045 68.8899 14.4364C68.7372 14.4648 68.5845 14.4915 68.4318 14.5163C68.2791 14.5376 68.1406 14.5572 68.0163 14.5749C67.75 14.614 67.5174 14.6761 67.3185 14.7614C67.1197 14.8466 66.9652 14.962 66.8551 15.1076C66.745 15.2496 66.69 15.4272 66.69 15.6403C66.69 15.9492 66.8018 16.1854 67.0256 16.3487C67.2528 16.5085 67.5405 16.5884 67.8885 16.5884ZM73.6067 18V9.81818H75.8066V11.2457H75.8919C76.041 10.7379 76.2914 10.3544 76.6429 10.0952C76.9945 9.83239 77.3993 9.70099 77.8574 9.70099C77.9711 9.70099 78.0936 9.7081 78.225 9.7223C78.3564 9.73651 78.4718 9.75604 78.5712 9.78089V11.7944C78.4647 11.7624 78.3173 11.734 78.1291 11.7092C77.9409 11.6843 77.7686 11.6719 77.6124 11.6719C77.2786 11.6719 76.9803 11.7447 76.7175 11.8903C76.4583 12.0323 76.2523 12.2312 76.0996 12.4869C75.9505 12.7425 75.8759 13.0373 75.8759 13.3711V18H73.6067ZM84.5065 9.81818V11.5227H79.5793V9.81818H84.5065ZM80.6979 7.85795H82.9671V15.4858C82.9671 15.6953 82.999 15.8587 83.0629 15.9759C83.1269 16.0895 83.2156 16.1694 83.3293 16.2156C83.4465 16.2617 83.5814 16.2848 83.7341 16.2848C83.8406 16.2848 83.9472 16.2759 84.0537 16.2582C84.1602 16.2369 84.2419 16.2209 84.2987 16.2102L84.6556 17.8988C84.542 17.9343 84.3822 17.9751 84.1762 18.0213C83.9703 18.071 83.7199 18.1012 83.4252 18.1119C82.8783 18.1332 82.3989 18.0604 81.9869 17.8935C81.5786 17.7266 81.2607 17.4673 81.0335 17.1158C80.8062 16.7642 80.6943 16.3203 80.6979 15.7841V7.85795Z" fill="#E6B800"/>
</svg>
